<svg width="79" height="56" viewBox="0 0 79 56" fill="none" xmlns="http://www.w3.org/2000/svg">
<path fill-rule="evenodd" clip-rule="evenodd" d="M7.42999 26.9775C19.2227 24.1781 27.9922 13.6158 27.9922 1.01358V1.0127H26.9922V1.01358C26.9922 15.1976 15.4465 26.7031 1.1953 26.7041V26.9775H1.19505V27.9775H1.1953V28.2412V28.2549H2.04132C15.8971 28.7023 26.9922 40.0755 26.9922 54.04H27.9922C27.9922 41.7795 19.7588 31.442 8.51945 28.2549L77.1252 28.2549V27.2549H77.125V26.9775L7.42999 26.9775Z" fill="#9E7A43"/>
<path d="M7.42999 26.9775V27.9775L7.19903 26.0046L7.42999 26.9775ZM27.9922 1.0127V0.0126953H28.9922V1.0127H27.9922ZM26.9922 1.0127H25.9922V0.0126953H26.9922V1.0127ZM1.1953 26.7041H0.195305V25.7042L1.19523 25.7041L1.1953 26.7041ZM1.1953 26.9775H2.1953V27.9775H1.1953V26.9775ZM1.19505 26.9775H0.195053V25.9775H1.19505V26.9775ZM1.19505 27.9775V28.9775H0.195053V27.9775H1.19505ZM1.1953 27.9775V26.9775H2.1953V27.9775H1.1953ZM1.1953 28.2549V29.2549H0.195305V28.2549H1.1953ZM2.04132 28.2549V27.2549H2.05746L2.07359 27.2554L2.04132 28.2549ZM26.9922 54.04V55.04H25.9922V54.04H26.9922ZM27.9922 54.04H28.9922V55.04H27.9922V54.04ZM8.51945 28.2549L8.24664 29.217L8.51945 27.2549V28.2549ZM77.1252 28.2549H78.1252V29.2549H77.1252L77.1252 28.2549ZM77.1252 27.2549V26.2549H78.1252V27.2549H77.1252ZM77.125 27.2549V28.2549H76.125V27.2549H77.125ZM77.125 26.9775L77.125 25.9775H78.125V26.9775H77.125ZM28.9922 1.01358C28.9922 14.0922 19.8917 25.0471 7.66096 27.9505L7.19903 26.0046C18.5538 23.3091 26.9922 13.1394 26.9922 1.01358H28.9922ZM28.9922 1.0127V1.01358H26.9922V1.0127H28.9922ZM26.9922 0.0126953H27.9922V2.0127H26.9922V0.0126953ZM25.9922 1.01358V1.0127H27.9922V1.01358H25.9922ZM1.19523 25.7041C14.898 25.7031 25.9922 14.6416 25.9922 1.01358H27.9922C27.9922 15.7536 15.9951 27.703 1.19538 27.7041L1.19523 25.7041ZM0.195305 26.9775V26.7041H2.1953V26.9775H0.195305ZM1.1953 27.9775H1.19505V25.9775H1.1953V27.9775ZM2.19505 26.9775V27.9775H0.195053V26.9775H2.19505ZM1.19505 26.9775H1.1953V28.9775H1.19505V26.9775ZM0.195305 28.2412V27.9775H2.1953V28.2412H0.195305ZM0.195305 28.2549V28.2412H2.1953V28.2549H0.195305ZM2.04132 29.2549H1.1953V27.2549H2.04132V29.2549ZM25.9922 54.04C25.9922 40.6169 15.3272 29.6844 2.00905 29.2544L2.07359 27.2554C16.4671 27.7202 27.9922 39.534 27.9922 54.04H25.9922ZM27.9922 55.04H26.9922V53.04H27.9922V55.04ZM8.79227 27.2928C20.4505 30.5987 28.9922 41.3206 28.9922 54.04H26.9922C26.9922 42.2385 19.0671 32.2853 8.24664 29.217L8.79227 27.2928ZM77.1252 29.2549L8.51945 29.2549V27.2549L77.1252 27.2549L77.1252 29.2549ZM78.1252 27.2549V28.2549H76.1252V27.2549H78.1252ZM77.125 26.2549H77.1252V28.2549H77.125V26.2549ZM76.125 27.2549V26.9775H78.125V27.2549H76.125ZM77.125 27.9775L7.42999 27.9775V25.9775L77.125 25.9775L77.125 27.9775Z" fill="#9E7A43"/>
</svg>
