<svg width="242" height="82" viewBox="0 0 242 82" fill="none" xmlns="http://www.w3.org/2000/svg">
<g clip-path="url(#clip0_818_4121)">
<path d="M27.9276 21.1523C28.0553 20.4607 28.3033 19.273 28.4874 18.6002C27.6609 18.3371 26.8231 18.1078 25.9704 17.9199C25.74 18.8028 25.557 19.6974 25.4219 20.5998L27.9276 21.1523Z" fill="#9E7A43"/>
<path d="M15.3828 27.0983C15.2287 26.4707 15.101 25.828 15.0071 25.1777C14.143 25.4283 13.2865 25.724 12.4375 26.0647C12.5277 26.512 12.6216 26.9593 12.7268 27.399C12.832 27.8388 12.9747 28.3462 13.1024 28.816C13.9174 28.4616 14.75 28.1492 15.5969 27.8801C15.518 27.6208 15.4466 27.3614 15.3828 27.0983Z" fill="#9E7A43"/>
<path d="M21.8802 26.6855C21.76 25.9977 21.606 24.8062 21.5496 24.0996C20.6906 24.1297 19.8303 24.2036 18.9688 24.3214C19.0461 25.217 19.1715 26.1078 19.3444 26.9899L21.8802 26.6855Z" fill="#9E7A43"/>
<path d="M17.0426 41.9569C16.5242 41.5133 15.6339 40.7053 15.1643 40.2129C14.513 40.7955 13.8923 41.4115 13.3047 42.0583C13.949 42.6909 14.6248 43.2905 15.3296 43.8549L17.0426 41.9569Z" fill="#9E7A43"/>
<path d="M35.4651 18.0189C35.8408 17.4062 36.4381 16.414 36.8551 15.8276C36.1712 15.2904 35.4603 14.7886 34.725 14.3242C34.2131 15.0637 33.7416 15.8303 33.3125 16.6207L35.4651 18.0189Z" fill="#9E7A43"/>
<path d="M43.6483 17.6342C44.2005 17.1719 45.0871 16.4841 45.6844 16.0707C45.2211 15.3415 44.7202 14.6324 44.1817 13.9434C43.451 14.4657 42.7476 15.0252 42.0742 15.6197L43.6483 17.6342Z" fill="#9E7A43"/>
<path d="M14.03 55.168C13.8159 56.0437 13.6543 56.9345 13.5078 57.8403C14.4169 58.156 15.3298 58.4191 16.2465 58.6409C16.3516 57.7538 16.4982 56.8769 16.686 56.0099C15.7867 55.7754 14.9002 55.4943 14.03 55.168Z" fill="#9E7A43"/>
<path d="M61.7068 55.0957C61.8795 55.9842 62.0049 56.8813 62.0824 57.7831C61.2184 57.9008 60.3531 57.9735 59.4865 58.0011C59.4339 57.2681 59.2687 56.0842 59.1484 55.3701L61.7068 55.0957Z" fill="#9E7A43"/>
<path d="M38.9218 66.3646C38.2414 66.9565 37.5304 67.5122 36.7917 68.0296C36.2583 67.3305 35.7574 66.6102 35.2891 65.8685C35.8676 65.4701 36.6941 64.8537 37.235 64.4102L38.9218 66.3646Z" fill="#9E7A43"/>
<path d="M23.1079 56.8407C22.4205 56.8407 21.2521 56.7805 20.5609 56.7129C20.4407 57.5673 20.3618 58.428 20.3242 59.295C21.2187 59.3712 22.1166 59.3988 23.014 59.3777L23.1079 56.8407Z" fill="#9E7A43"/>
<path d="M30.3367 64.2714C29.4979 64.5965 28.6427 64.8775 27.7746 65.1134C27.5943 64.5383 27.429 63.9595 27.2862 63.3769C27.2224 63.1176 27.1735 62.8582 27.1172 62.5989C27.7934 62.426 28.7739 62.114 29.4276 61.8848L30.3367 64.2714Z" fill="#9E7A43"/>
<path d="M10.578 38.9276C11.2277 38.313 11.9086 37.7322 12.6179 37.1874C12.0841 36.4345 11.59 35.6542 11.1377 34.8496C10.4064 35.3883 9.69514 35.9646 9.00391 36.5785C9.49604 37.3941 10.022 38.1797 10.578 38.9276Z" fill="#9E7A43"/>
<path d="M57.7928 18.6802C58.7194 18.5953 59.6498 18.5577 60.5802 18.5675C60.4751 17.6679 60.3285 16.7659 60.1407 15.8613C59.179 15.8613 58.2323 15.9403 57.2969 16.0455C57.5074 16.9146 57.6729 17.794 57.7928 18.6802Z" fill="#9E7A43"/>
<path d="M67.0591 26.7824C67.2695 25.8991 67.4348 25.0046 67.5738 24.0875C66.6721 23.7718 65.7655 23.5037 64.8539 23.2832C64.7538 24.1668 64.6096 25.0449 64.4219 25.9142C65.316 26.1556 66.1964 26.4455 67.0591 26.7824Z" fill="#9E7A43"/>
<path d="M63.3136 29.6699C64.1626 29.9593 65.0003 30.2976 65.8231 30.6735C65.4971 31.4757 65.131 32.2609 64.7261 33.0263C64.0574 32.7031 63.0469 32.2746 62.3594 32.0303L63.3136 29.6699Z" fill="#9E7A43"/>
<path d="M65.8179 38.1719C66.5186 38.7354 67.1895 39.3351 67.8278 39.9685C67.2417 40.6149 66.6281 41.2288 65.987 41.8101C65.4686 41.2764 64.6496 40.5134 64.0898 40.0324L65.8179 38.1719Z" fill="#9E7A43"/>
<path d="M18.1093 33.8684C17.7712 33.2746 17.2189 32.2297 16.9297 31.6133C16.1295 31.9403 15.3443 32.3011 14.5742 32.707C14.9612 33.5188 15.3913 34.3092 15.8628 35.0749L18.1093 33.8684Z" fill="#9E7A43"/>
<path d="M51.442 20.1075C52.1295 19.8632 53.2077 19.5287 53.9214 19.3558C53.8763 19.1604 53.8388 18.98 53.7899 18.762C53.6322 18.1155 53.4481 17.469 53.2415 16.8301C52.3703 17.0607 51.5124 17.3393 50.6719 17.6645L51.442 20.1075Z" fill="#9E7A43"/>
<path d="M12.9893 46.9821C12.2279 46.4541 11.4943 45.8871 10.7916 45.2832C10.2919 46.0349 9.81859 46.8129 9.38281 47.6248C10.1342 48.2299 10.8855 48.7862 11.6707 49.3048C12.0764 48.488 12.5159 47.7137 12.9893 46.9821Z" fill="#9E7A43"/>
<path d="M65.6378 54.8528C65.8031 55.5368 65.9433 56.2297 66.0586 56.9313C66.9264 56.6757 67.7942 56.3788 68.6507 56.0367C68.5568 55.5368 68.4516 55.0407 68.3314 54.5333C68.2111 54.0259 68.1135 53.6689 67.9895 53.2441C67.1555 53.62 66.314 53.9169 65.4688 54.1875C65.5251 54.4206 65.5852 54.6348 65.6378 54.8528Z" fill="#9E7A43"/>
<path d="M47.6754 65.3981C47.2403 66.187 46.7638 66.9523 46.2478 67.6909C45.5153 67.2248 44.8128 66.7249 44.1328 66.1874C44.5536 65.6011 45.1321 64.6652 45.4965 64.0488L47.6754 65.3981Z" fill="#9E7A43"/>
<path d="M17.8098 52.2996C16.9529 52.01 16.1115 51.6763 15.2891 51.2998C15.6241 50.4943 16.0003 49.7064 16.4161 48.9395C17.0397 49.2364 18.1367 49.6912 18.7791 49.9204L17.8098 52.2996Z" fill="#9E7A43"/>
<path d="M16.2755 65.7753C16.1591 64.8319 16.0914 63.896 16.0614 62.9714C15.31 62.8512 14.585 62.6971 13.8412 62.5166C13.6233 62.464 13.4054 62.4039 13.1875 62.3438C13.1875 63.2947 13.2326 64.2531 13.3152 65.219C14.0102 65.3844 14.709 65.531 15.4115 65.6513C15.7007 65.7039 15.9863 65.7415 16.2755 65.7753Z" fill="#9E7A43"/>
<path d="M64.7773 16.1621C64.8976 17.1093 64.9765 18.0476 65.014 18.9773C65.7391 19.0975 66.4641 19.2441 67.1967 19.4208C67.4221 19.4771 67.6512 19.5373 67.8766 19.6012C67.8766 18.654 67.8203 17.6918 67.7339 16.7259C67.0314 16.5568 66.3289 16.4064 65.6264 16.2861L64.7773 16.1621Z" fill="#9E7A43"/>
<path d="M17.2282 70.4358C16.1989 70.3681 15.1658 70.2541 14.1289 70.0938C14.1289 70.1201 14.1289 70.1426 14.1289 70.1652C14.3618 71.1273 14.6348 72.0845 14.9479 73.0367C16.0148 73.157 17.0817 73.2359 18.1411 73.266C17.8105 72.3338 17.4949 71.3867 17.2282 70.4358Z" fill="#9E7A43"/>
<path d="M35.1932 7.0736C35.3397 6.92701 35.4938 6.78419 35.644 6.63761C34.8175 6.16403 33.961 5.72804 33.0744 5.31836C32.5973 5.822 32.139 6.34068 31.6995 6.86688C31.5004 7.11118 31.3238 7.35925 31.1172 7.61858C31.9963 7.98692 32.8478 8.38783 33.6718 8.82132C34.1526 8.22246 34.6598 7.63988 35.1932 7.0736Z" fill="#9E7A43"/>
<path d="M57.9844 25.1061C58.7357 25.1061 59.7876 25.1512 60.5239 25.2226C60.6413 24.3586 60.7152 23.4893 60.7456 22.6179C59.8448 22.5429 58.9406 22.5165 58.037 22.539L57.9844 25.1061Z" fill="#9E7A43"/>
<path d="M25.0174 70.0215C24.2961 70.153 23.5635 70.2658 22.8234 70.3485L22.1172 70.4086C22.4403 71.3031 22.8047 72.1864 23.2141 73.0659C23.9392 72.9832 24.6567 72.8817 25.3667 72.7539C25.641 72.7013 25.9115 72.6449 26.1857 72.5848C25.7499 71.7429 25.363 70.8859 25.0174 70.0215Z" fill="#9E7A43"/>
<path d="M45.082 8.385C45.7281 8.00914 46.3968 7.63329 47.0843 7.29878C47.2796 7.20482 47.4825 7.12213 47.6778 7.02817C47.0642 6.30653 46.4118 5.60117 45.7206 4.91211C45.0932 5.22783 44.4734 5.55858 43.8685 5.91188C43.6093 6.06598 43.3539 6.2276 43.1172 6.38921C43.8122 7.03192 44.4734 7.70094 45.082 8.385Z" fill="#9E7A43"/>
<path d="M55.9724 11.9154C56.7087 11.7801 57.4601 11.6686 58.2265 11.5809L58.8989 11.5207C58.5721 10.6299 58.1964 9.74293 57.7719 8.86719C57.0656 8.94988 56.3619 9.05261 55.6606 9.17539C55.3676 9.23177 55.0783 9.29566 54.7891 9.35956C55.2211 10.1977 55.6155 11.0547 55.9724 11.9154Z" fill="#9E7A43"/>
<path d="M35.8656 73.5918C35.242 73.9551 34.5971 74.3009 33.9309 74.6292L33.2734 74.9411C33.882 75.6678 34.5282 76.3744 35.2119 77.0609C35.8731 76.7339 36.523 76.3881 37.1504 76.0236L37.8378 75.5989C37.1391 74.9524 36.4854 74.2796 35.8656 73.5918Z" fill="#9E7A43"/>
<path d="M78.4406 30.6211C78.11 31.5682 77.7456 32.5004 77.3398 33.4099C78.0912 34.124 78.7975 34.8682 79.4849 35.665C79.932 34.7517 80.349 33.8158 80.7284 32.8574C79.9921 32.0719 79.2295 31.3239 78.4406 30.6211Z" fill="#9E7A43"/>
<path d="M45.8338 74.8519C45.6572 75.0361 45.4581 75.2052 45.2891 75.3819C46.1155 75.863 46.9721 76.3065 47.8549 76.7199C48.3696 76.1787 48.8655 75.6262 49.335 75.0624C49.5003 74.8557 49.6619 74.6489 49.8234 74.4385C48.9494 74.0651 48.1041 73.6592 47.2876 73.2207C46.8193 73.7694 46.3347 74.3132 45.8338 74.8519Z" fill="#9E7A43"/>
<path d="M55.5967 61.4971C55.4592 62.3835 55.2736 63.2618 55.0407 64.1281C54.1917 63.9439 53.354 63.7109 52.5312 63.444C52.7304 62.7449 52.9821 61.6324 53.1135 60.9258L55.5967 61.4971Z" fill="#9E7A43"/>
<path d="M7.47967 23.216C7.36697 22.1937 7.30311 21.1601 7.28057 20.1152C6.3489 20.5249 5.42475 20.9797 4.51562 21.4683C4.58325 22.5395 4.69595 23.5919 4.84997 24.633C5.71026 24.1218 6.58557 23.652 7.47967 23.216Z" fill="#9E7A43"/>
<path d="M3.39983 35.5964C2.94151 34.6681 2.517 33.7172 2.13381 32.7324C1.39374 33.4503 0.683722 34.1719 0 34.9537C0.428265 35.9422 0.897855 36.9082 1.40125 37.8365C2.03614 37.0435 2.70483 36.3068 3.39983 35.5964Z" fill="#9E7A43"/>
<path d="M15.5271 12.9825C15.7713 11.9865 16.0606 10.9904 16.3949 10.002C15.3932 10.0696 14.3788 10.1786 13.352 10.3289C13.0515 11.3563 12.7935 12.3861 12.5781 13.4185C13.5661 13.2343 14.5504 13.084 15.5271 12.9825Z" fill="#9E7A43"/>
<path d="M2.67411 51.3688C3.00846 50.4216 3.37661 49.4895 3.77858 48.595C3.02724 47.8846 2.32098 47.1367 1.6335 46.3398C1.18269 47.2607 0.750671 48.1966 0.375 49.1512C1.12634 49.9255 1.87769 50.6697 2.67411 51.3688Z" fill="#9E7A43"/>
<path d="M50.4377 2.9731C51.0914 3.72481 51.7088 4.50533 52.2898 5.31467C53.2778 5.02526 54.2884 4.77344 55.3177 4.56296C54.7542 3.72105 54.1531 2.89417 53.5107 2.08984C52.4689 2.34793 51.4445 2.64235 50.4377 2.9731Z" fill="#9E7A43"/>
<path d="M62.8438 8.64453C63.2019 9.58417 63.52 10.5326 63.798 11.4897C64.8273 11.5574 65.8604 11.6714 66.8972 11.8318C66.6531 10.8395 66.3638 9.85102 66.037 8.8738C64.9888 8.74225 63.9031 8.67084 62.8438 8.64453Z" fill="#9E7A43"/>
<path d="M36.8438 1.87927C37.7191 2.37164 38.5643 2.90535 39.387 3.46537C40.2173 2.85649 41.0738 2.27767 41.9679 1.73644C41.1452 1.12756 40.2924 0.544988 39.4096 0C38.523 0.59009 37.6665 1.21401 36.8438 1.87927Z" fill="#9E7A43"/>
<path d="M72.5905 18.2656C72.6055 19.2679 72.5779 20.2627 72.5078 21.2499C73.452 21.6658 74.3824 22.1294 75.2991 22.6406C75.4118 21.6295 75.4794 20.611 75.5132 19.5811C74.5515 19.0963 73.5747 18.6603 72.5905 18.2656Z" fill="#9E7A43"/>
<path d="M26.6065 6.11066C27.1737 5.25371 27.7786 4.4118 28.4322 3.5962C27.4668 3.31431 26.4787 3.07 25.4757 2.86328C24.8421 3.72774 24.246 4.611 23.6875 5.51305C24.6768 5.67091 25.6498 5.87011 26.6065 6.11066Z" fill="#9E7A43"/>
<path d="M73.5781 58.8857C73.6871 59.9156 73.7472 60.9529 73.766 62.0016C74.7051 61.5906 75.6293 61.1433 76.5384 60.6597C76.4733 59.5848 76.3656 58.5211 76.2153 57.4688C75.3513 57.9837 74.4722 58.4535 73.5781 58.8857Z" fill="#9E7A43"/>
<path d="M65.4649 69.1197C65.2169 70.1157 64.9239 71.1118 64.582 72.0965C65.5963 72.0326 66.6182 71.9274 67.64 71.777C67.9443 70.7547 68.2073 69.7211 68.4251 68.6875C67.4371 68.8754 66.4529 69.0182 65.4649 69.1197Z" fill="#9E7A43"/>
<path d="M77.7031 46.4704C78.1577 47.3988 78.5747 48.3497 78.9466 49.3307C79.6979 48.6241 80.4142 47.8811 81.0954 47.1018C80.6672 46.1209 80.2051 45.1587 79.7055 44.2266C79.0668 45.0121 78.3981 45.7563 77.7031 46.4704Z" fill="#9E7A43"/>
<path d="M54.3603 75.9531C53.7893 76.8101 53.1732 77.6482 52.5195 78.4638C53.4838 78.747 54.468 78.9975 55.4723 79.2155C56.111 78.3561 56.7108 77.4791 57.2718 76.5846C56.2875 76.3941 55.317 76.1836 54.3603 75.9531Z" fill="#9E7A43"/>
<path d="M30.5102 78.9859C29.8566 78.2342 29.243 77.4525 28.6694 76.6406C27.6814 76.9263 26.6746 77.1743 25.6641 77.3923C26.2226 78.2342 26.8199 79.0586 27.456 79.8655C28.4854 79.6024 29.5072 79.3054 30.5102 78.9859Z" fill="#9E7A43"/>
<path d="M44.0967 80.1426C43.2251 79.6465 42.3836 79.1128 41.5609 78.5527C40.7306 79.1579 39.8704 79.7404 38.9688 80.2779C39.7877 80.883 40.6367 81.4543 41.5158 81.9993C42.4061 81.413 43.2702 80.8079 44.0967 80.1426Z" fill="#9E7A43"/>
<path d="M8.48177 63.7067C8.48177 62.6956 8.50055 61.6959 8.57568 60.6998C7.6315 60.2864 6.70234 59.8279 5.7882 59.3242C5.67174 60.339 5.60037 61.3689 5.57031 62.4062C6.52953 62.8848 7.50001 63.3183 8.48177 63.7067Z" fill="#9E7A43"/>
<path d="M37.3438 11.1098C38.0586 11.6365 38.7457 12.1997 39.4024 12.7974C40.0512 12.1352 40.7346 11.5079 41.4498 10.9181C40.7962 10.298 40.1087 9.70035 39.3874 9.13281C38.6736 9.77176 37.9924 10.4308 37.3438 11.1098Z" fill="#9E7A43"/>
<path d="M20.5702 11.9418C20.465 12.2425 20.3674 12.5432 20.2734 12.8438C21.2251 12.8839 22.1593 12.9691 23.0759 13.0994C23.3314 12.3778 23.6169 11.6562 23.9287 10.942C24.0114 10.7579 24.1053 10.5662 24.1917 10.3895C23.255 10.2292 22.3021 10.1039 21.3328 10.0137C21.0598 10.6551 20.8056 11.2978 20.5702 11.9418Z" fill="#9E7A43"/>
<path d="M65.2494 47.0078C65.7177 47.7818 66.1453 48.5797 66.5304 49.3982C65.7583 49.8056 64.9658 50.1731 64.1562 50.4995C63.8519 49.823 63.3335 48.8307 62.9766 48.1955L65.2494 47.0078Z" fill="#9E7A43"/>
<path d="M29.8486 14.8946C30.2323 14.0558 30.6599 13.2378 31.1296 12.444C30.2956 12.0682 29.4466 11.7562 28.5675 11.4668C28.1055 12.3012 27.6922 13.1506 27.3203 14.0038C28.1768 14.2594 29.0259 14.5601 29.8486 14.8946Z" fill="#9E7A43"/>
<path d="M6.59087 31.5709C6.70357 31.864 6.82003 32.1572 6.94024 32.4466C7.69159 31.8703 8.46422 31.3366 9.25814 30.8455C8.98765 30.1263 8.73721 29.3922 8.50679 28.643C8.4542 28.4513 8.40536 28.2671 8.35277 28.0566C7.5338 28.5302 6.72611 29.0527 5.92969 29.6089C6.14006 30.2629 6.3542 30.9131 6.59087 31.5709Z" fill="#9E7A43"/>
<path d="M11.8559 20.5207C11.8559 20.8365 11.8559 21.1559 11.8822 21.4717C12.7913 21.1935 13.6979 20.958 14.602 20.7651C14.602 19.9908 14.602 19.2128 14.6659 18.4272C14.6659 18.2243 14.6997 18.0213 14.7185 17.8184C13.7868 17.9887 12.8514 18.2017 11.9122 18.4573C11.8747 19.1677 11.8521 19.8367 11.8559 20.5207Z" fill="#9E7A43"/>
<path d="M21.5507 20.1491C21.6283 19.2174 21.7537 18.2903 21.9263 17.3715C21.0322 17.3164 20.1281 17.3026 19.214 17.3302C19.0612 18.274 18.9559 19.2248 18.8984 20.1792C19.79 20.1265 20.6741 20.1165 21.5507 20.1491Z" fill="#9E7A43"/>
<path d="M68.1484 35.0339C68.9042 35.5628 69.6327 36.1299 70.3311 36.7327C70.827 35.981 71.2966 35.2068 71.7286 34.3987C70.9772 33.7923 70.2184 33.231 69.452 32.7148C69.0569 33.5094 68.6218 34.2834 68.1484 35.0339Z" fill="#9E7A43"/>
<path d="M70.5366 43.125C69.8879 43.7414 69.213 44.3202 68.5117 44.8614C69.0469 45.6212 69.541 46.4091 69.9919 47.2218C70.7207 46.6843 71.4269 46.1168 72.1107 45.5042C71.6185 44.6773 71.0963 43.8842 70.5366 43.125Z" fill="#9E7A43"/>
<path d="M49.1218 14.1015C49.9595 13.7063 50.8172 13.355 51.6914 13.0491C51.2894 12.241 50.8386 11.4517 50.354 10.6699C49.4624 11.0132 48.5996 11.3891 47.7656 11.7975C48.2571 12.5415 48.7098 13.3106 49.1218 14.1015Z" fill="#9E7A43"/>
<path d="M72.5574 26.3593L71.806 25.9609C71.5994 26.8893 71.3515 27.7989 71.0547 28.6821C71.6858 29.058 72.3132 29.4338 72.933 29.8397C73.1359 29.9751 73.3313 30.1216 73.5266 30.2645C73.8497 29.3699 74.1314 28.4491 74.3831 27.5057C73.8008 27.0998 73.181 26.7164 72.5574 26.3593Z" fill="#9E7A43"/>
<path d="M74.4467 50.365C74.3528 50.1169 74.2514 49.8726 74.1537 49.6133C73.4023 50.1846 72.6285 50.717 71.832 51.2107C72.0825 51.8847 72.3104 52.5725 72.5158 53.2741C72.5871 53.5222 72.651 53.7702 72.7149 54.0258C73.5338 53.5485 74.3453 53.026 75.1379 52.466C74.9276 51.7744 74.6984 51.0678 74.4467 50.365Z" fill="#9E7A43"/>
<path d="M60.4591 69.9872C60.5455 69.7391 60.6244 69.491 60.707 69.2355C59.7566 69.1866 58.8287 69.0926 57.9045 68.9648C57.6541 69.6364 57.3873 70.3079 57.1043 70.9794C56.9991 71.2124 56.894 71.4455 56.7812 71.6747C57.7154 71.8401 58.6659 71.9654 59.6326 72.0506C59.9331 71.3741 60.2111 70.6825 60.4591 69.9872Z" fill="#9E7A43"/>
<path d="M51.1476 67.1582C50.7595 67.9976 50.3269 68.8156 49.8516 69.6088C50.678 69.9846 51.5233 70.3003 52.3949 70.586C52.8607 69.7566 53.2814 68.9109 53.6571 68.049C52.8058 67.7955 51.9682 67.4982 51.1476 67.1582Z" fill="#9E7A43"/>
<path d="M59.4616 61.9599C59.3838 62.8791 59.2584 63.7937 59.0859 64.6999C59.985 64.76 60.8929 64.7776 61.8096 64.7525C61.9648 63.8104 62.0738 62.8707 62.1364 61.9336C61.2348 61.9887 60.3432 61.9975 59.4616 61.9599Z" fill="#9E7A43"/>
<path d="M69.1861 61.4146C69.1861 61.1515 69.1861 60.8922 69.1635 60.6328C68.2507 60.9147 67.3415 61.1515 66.4287 61.3469C66.4287 62.0611 66.4287 62.7789 66.3761 63.5043C66.3535 63.7637 66.331 64.0193 66.3047 64.2786C67.2401 64.1132 68.183 63.9027 69.1147 63.6472C69.1635 62.8992 69.1898 62.155 69.1861 61.4146Z" fill="#9E7A43"/>
<path d="M75.617 38.201C75.4404 37.998 75.2601 37.7988 75.0798 37.5996C74.5651 38.4002 74.0204 39.1669 73.4531 39.8961C73.919 40.4448 74.3698 41.0161 74.8055 41.61C74.9558 41.8129 75.0911 42.0309 75.2376 42.2414C75.8462 41.5047 76.4272 40.7342 76.9807 39.9299C76.5449 39.3361 76.0903 38.7572 75.617 38.201Z" fill="#9E7A43"/>
<path d="M8.48727 55.5768C8.75024 55.7234 9.01321 55.8625 9.27993 55.9978C9.49031 55.0732 9.74076 54.1699 10.0313 53.2879C9.37385 52.912 8.7277 52.5362 8.0853 52.0927C7.90873 51.9724 7.72841 51.8483 7.5556 51.7168C7.23252 52.6076 6.94326 53.5246 6.69531 54.4605C7.28512 54.874 7.88995 55.2498 8.48727 55.5768Z" fill="#9E7A43"/>
<path d="M5.42497 43.7307C5.62408 43.9675 5.8307 44.1968 6.03732 44.4223C6.55574 43.6255 7.09671 42.8625 7.67149 42.1296C7.1756 41.5545 6.69474 40.9531 6.23642 40.3255C6.11245 40.1563 5.99975 39.9797 5.88329 39.8105C5.27095 40.5397 4.68866 41.314 4.12891 42.1033C4.5459 42.6633 4.97792 43.2233 5.42497 43.7307Z" fill="#9E7A43"/>
<path d="M43.6292 70.8943C42.9179 70.365 42.2346 69.7993 41.5818 69.1992C40.9265 69.8615 40.2368 70.4888 39.5156 71.0785C40.1655 71.6986 40.8455 72.3 41.563 72.8675C42.2918 72.2311 42.9806 71.5734 43.6292 70.8943Z" fill="#9E7A43"/>
<path d="M23.7108 65.8829C23.5042 65.0072 23.3351 64.1352 23.2299 63.252C22.3121 63.3375 21.3904 63.3739 20.4688 63.361C20.5664 64.2555 20.7092 65.15 20.8933 66.0521C21.8475 66.0483 22.7829 65.9882 23.7108 65.8829Z" fill="#9E7A43"/>
<path d="M31.8593 67.8379C31.0263 68.2299 30.1736 68.5787 29.3047 68.8828C29.7054 69.6971 30.1487 70.4977 30.6346 71.2845C31.5145 70.9524 32.3772 70.576 33.2192 70.1569C32.7267 69.4075 32.2728 68.6335 31.8593 67.8379Z" fill="#9E7A43"/>
<path d="M27.8828 41.7656H32.8266C36.8125 41.7656 39.5662 44.5018 39.5662 48.0724V48.11C39.5662 51.6806 36.8125 54.4544 32.8266 54.4544H27.8828V41.7656ZM32.8266 51.9137C35.1107 51.9137 36.651 50.3764 36.651 48.1288V48.11C36.651 45.8549 35.1107 44.2876 32.8266 44.2876H30.6741V51.9325L32.8266 51.9137Z" fill="#9E7A43"/>
<path d="M45.6429 41.5547H48.1073L53.2315 54.3337H50.2261L46.909 45.3997L43.5805 54.33H40.5L45.6429 41.5547Z" fill="#9E7A43"/>
<path d="M32.9913 27.6172H35.4557L40.5799 40.3962H37.5745L34.2611 31.4584L30.9439 40.3962H27.8672L32.9913 27.6172Z" fill="#9E7A43"/>
<path d="M40.5744 34.1465V34.1127C40.5677 33.2414 40.7357 32.3776 41.0687 31.5725C41.4016 30.7673 41.8926 30.0372 42.5126 29.4253C43.1326 28.8134 43.869 28.3321 44.6783 28.0101C45.4875 27.688 46.3531 27.5317 47.2238 27.5503C49.5041 27.5503 50.8828 28.1667 52.2052 29.2905L50.4471 31.4103C49.5553 30.5613 48.3643 30.0993 47.1336 30.1249C45.105 30.1249 43.4934 31.9177 43.4934 34.0751V34.1127C43.4934 36.4317 45.0862 38.1344 47.3327 38.1344C48.2665 38.1663 49.1865 37.9033 49.9624 37.3826V35.5598H47.1562V33.1505H52.6598V38.6606C51.1576 39.9635 49.2344 40.6778 47.2463 40.6714C43.3018 40.6714 40.5744 37.8976 40.5744 34.1465Z" fill="#9E7A43"/>
<path d="M112.005 26.3104V27.6446H110.315C109.711 27.6291 109.135 27.383 108.707 26.9568C108.217 26.4903 107.92 25.8575 107.873 25.1828C107.838 24.2747 107.655 23.3784 107.332 22.5293C107.162 22.1196 106.871 21.7717 106.497 21.5325C106.124 21.2933 105.686 21.1742 105.243 21.1912C104.915 21.1782 104.588 21.237 104.285 21.3636C103.982 21.4902 103.71 21.6815 103.489 21.9241C103.033 22.4172 102.786 23.0681 102.801 23.7395H106.535L106.599 26.3104C106.615 27.0762 106.479 27.8376 106.2 28.5509C105.921 29.2642 105.504 29.9154 104.973 30.4673C104.48 31.0142 103.877 31.4514 103.204 31.7507C102.532 32.0499 101.804 32.2046 101.068 32.2046C100.331 32.2046 99.6033 32.0499 98.9307 31.7507C98.258 31.4514 97.6556 31.0142 97.1624 30.4673C96.6294 29.9122 96.2113 29.2573 95.9321 28.54C95.653 27.8227 95.5183 27.0573 95.5358 26.2878C95.5132 25.7654 95.4944 24.931 95.4531 23.7395H96.8919C96.8919 24.1793 96.9145 25.0362 96.9333 26.3104C96.9186 26.8866 97.0183 27.4599 97.2266 27.9974C97.4349 28.5348 97.7476 29.0255 98.1467 29.4412C98.5135 29.8501 98.9624 30.1769 99.4641 30.4004C99.9658 30.6238 100.509 30.7388 101.058 30.7379C101.611 30.743 102.159 30.628 102.664 30.4009C103.168 30.1738 103.618 29.84 103.981 29.4224C104.782 28.5707 105.216 27.4382 105.191 26.269L105.149 25.0776H101.276C101.276 21.5671 102.613 19.8156 105.262 19.8156C105.962 19.7773 106.656 19.9574 107.249 20.3311C107.842 20.7048 108.304 21.2536 108.572 21.9016C108.966 22.889 109.199 23.9334 109.263 24.9949C109.293 25.3335 109.441 25.6508 109.682 25.8912C109.922 26.1317 110.239 26.28 110.578 26.3104H112.005ZM100.682 35.3759H99.1385V33.7447H100.682V35.3759ZM103.252 35.3759H101.708V33.7447H103.252V35.3759Z" fill="#9E7A43"/>
<path d="M115.183 27.5959L111.547 27.6447V26.3104L115.183 26.2578V27.5959Z" fill="#9E7A43"/>
<path d="M117.671 27.5959H114.809V26.2578H117.671V27.5959Z" fill="#9E7A43"/>
<path d="M120.156 27.5959H117.297V26.2578H120.156V27.5959Z" fill="#9E7A43"/>
<path d="M131.201 27.5951H128.672C128.109 28.8693 127.087 29.4744 125.584 29.4744C124.934 29.5099 124.289 29.3499 123.73 29.0149C123.172 28.68 122.726 28.1855 122.451 27.5951H119.758V26.2571H122.012C121.989 26.0278 121.967 25.7986 121.967 25.5693C121.967 23.145 123.263 21.6604 125.434 21.6604C125.943 21.6417 126.449 21.7417 126.913 21.9524C127.376 22.1631 127.785 22.4787 128.105 22.8744C128.733 23.6297 129.067 24.587 129.044 25.5693C129.044 25.7986 129.044 26.0278 129.026 26.2571H131.156L131.201 27.5951ZM127.587 25.558C127.627 24.8067 127.398 24.0656 126.941 23.4683C126.763 23.2614 126.542 23.0962 126.293 22.9845C126.045 22.8728 125.774 22.8172 125.502 22.8218C125.231 22.8106 124.961 22.8633 124.715 22.9756C124.468 23.0879 124.251 23.2567 124.082 23.4683C123.654 24.0775 123.447 24.8149 123.496 25.558C123.455 26.3061 123.694 27.0426 124.164 27.6252C124.341 27.835 124.561 28.0036 124.81 28.1192C125.058 28.2348 125.329 28.2945 125.603 28.2942C125.873 28.2983 126.139 28.2401 126.382 28.124C126.625 28.008 126.838 27.8373 127.005 27.6252C127.427 27.0218 127.632 26.2931 127.587 25.558Z" fill="#9E7A43"/>
<path d="M133.617 27.5959H130.758V26.2578H133.617V27.5959Z" fill="#9E7A43"/>
<path d="M136.105 27.5959H133.242V26.2578H136.105V27.5959Z" fill="#9E7A43"/>
<path d="M138.589 27.5959H135.73V26.2578H138.589V27.5959Z" fill="#9E7A43"/>
<path d="M146.457 25.7563C146.393 26.9891 145.769 27.5943 144.579 27.5943H138.211V26.2562H144.222C144.766 26.2562 145.059 25.9443 145.078 25.294V24.3958H142.847C142.402 24.4039 141.962 24.3094 141.56 24.1197C141.158 23.93 140.805 23.6502 140.529 23.302C139.927 22.5531 139.622 21.6083 139.672 20.6485C139.736 19.3142 140.153 18.2881 140.968 17.5778C141.566 17.0289 142.347 16.7232 143.159 16.7208C145.352 16.7208 146.457 17.8296 146.457 20.0434V25.7563ZM142.659 15.27H141.111V13.6426H142.659V15.27ZM145.007 23.0615L144.988 19.5736C144.966 18.3408 144.421 17.7131 143.358 17.7131C143.078 17.7114 142.802 17.7739 142.551 17.8958C142.3 18.0176 142.079 18.1956 141.908 18.4159C141.455 19.0324 141.212 19.7783 141.216 20.5433C141.198 21.964 142.032 23.0727 143.222 23.0727L145.007 23.0615ZM145.236 15.27H143.692V13.6426H145.236V15.27Z" fill="#9E7A43"/>
<path d="M155.959 26.2577C155.937 26.4869 155.937 26.9455 155.937 27.5957H154.081C153.266 27.5957 152.62 27.156 152.139 26.299C152.085 27.8021 151.5 29.2374 150.49 30.3507C149.516 31.4094 148.168 32.0471 146.733 32.1285C146.586 31.8767 146.376 31.4369 146.105 30.8318C146.733 30.8492 147.357 30.7293 147.934 30.4807C148.511 30.2321 149.027 29.8607 149.445 29.3923C150.29 28.4221 150.737 27.168 150.696 25.8818L150.677 19.9922H152.116L152.146 24.1491C152.147 24.7362 152.379 25.2993 152.792 25.7164C153.09 26.0399 153.503 26.2341 153.942 26.2577H155.959Z" fill="#9E7A43"/>
<path d="M159.716 24.8784C159.716 26.5509 158.717 27.5958 156.876 27.5958H155.527V26.2577H156.865C157.055 26.2737 157.247 26.2479 157.426 26.1822C157.606 26.1164 157.769 26.0123 157.904 25.877C158.039 25.7418 158.144 25.5787 158.209 25.399C158.275 25.2194 158.301 25.0276 158.285 24.837C158.285 23.5215 158.262 21.7249 158.243 19.4698C158.221 16.8576 158.202 15.0611 158.202 14.0801H159.641C159.641 15.0423 159.663 16.8388 159.682 19.4924C159.697 21.7475 159.716 23.5441 159.716 24.8784Z" fill="#9E7A43"/>
<path d="M163.978 27.5952H162.539L162.434 14.0645H163.872L163.978 27.5952Z" fill="#9E7A43"/>
<path d="M187.341 27.5957H184.249C183.173 27.5861 182.112 27.3438 181.139 26.8854C180.136 27.3446 179.048 27.5867 177.946 27.5957H174.73C173.999 27.6321 173.273 27.4708 172.626 27.1289C171.98 26.7869 171.437 26.2769 171.056 25.6526C170.368 24.5851 169.993 23.187 169.948 21.4543L169.906 20.2215H171.138L171.18 21.4543C171.202 23.2922 171.683 24.6302 172.622 25.4421C173.195 25.9725 173.949 26.2642 174.73 26.2577H178.009C178.609 26.2738 179.208 26.2385 179.801 26.1524C179.043 25.645 178.431 24.9462 178.028 24.1266C177.708 23.4987 177.537 22.8055 177.529 22.1007C177.5 21.6215 177.573 21.1417 177.741 20.6922C177.91 20.2427 178.171 19.8336 178.507 19.4911C178.843 19.1487 179.247 18.8806 179.694 18.704C180.14 18.5275 180.618 18.4465 181.098 18.4662C182.019 18.448 182.913 18.7767 183.603 19.3871C183.963 19.738 184.244 20.1615 184.427 20.6294C184.61 21.0973 184.692 21.5988 184.666 22.1007C184.655 22.803 184.491 23.4944 184.186 24.1266C183.799 24.9497 183.193 25.6505 182.435 26.1524C183.014 26.2382 183.6 26.2734 184.186 26.2577H187.341V27.5957ZM183.186 22.1007C183.211 21.4682 183.027 20.845 182.664 20.3267C182.486 20.0789 182.25 19.8783 181.977 19.7421C181.704 19.6059 181.402 19.5382 181.098 19.5449C180.799 19.5398 180.503 19.6084 180.237 19.7448C179.971 19.8811 179.743 20.081 179.572 20.3267C179.207 20.8441 179.024 21.4679 179.05 22.1007C179.039 22.9979 179.358 23.8677 179.948 24.5438C180.429 25.1527 180.823 25.4421 181.158 25.4421C181.492 25.4421 181.845 25.1527 182.326 24.5438C182.896 23.8586 183.201 22.9918 183.186 22.1007ZM181.913 16.8801H180.369V15.2715H181.913V16.8801Z" fill="#9E7A43"/>
<path d="M189.761 27.5959H186.898V26.2578H189.761V27.5959Z" fill="#9E7A43"/>
<path d="M192.246 27.5959H189.387V26.2578H192.246V27.5959Z" fill="#9E7A43"/>
<path d="M200.785 27.5953H198.906C198.599 27.5934 198.296 27.5209 198.021 27.3834C197.747 27.2459 197.507 27.0471 197.321 26.8022C197.09 26.54 196.912 26.2347 196.799 25.9039C196.571 26.4059 196.203 26.832 195.741 27.1317C195.278 27.4315 194.739 27.5923 194.188 27.5953H191.453V26.2572H193.771C194.155 26.2594 194.532 26.1511 194.857 25.9453C195.058 25.8314 195.226 25.6659 195.343 25.4658C195.46 25.2657 195.522 25.0382 195.522 24.8064C195.567 25.1409 195.567 23.5323 195.503 19.9805H196.942C196.942 21.3185 196.964 22.634 196.983 23.9495C196.97 24.5957 197.202 25.2229 197.633 25.7047C197.772 25.8706 197.944 26.0062 198.138 26.1031C198.332 26.2001 198.544 26.2564 198.76 26.2685H200.766V27.6065L200.785 27.5953ZM195.901 30.6848H194.335V29.0761H195.897L195.901 30.6848ZM198.448 30.6848H196.904V29.0761H198.448V30.6848Z" fill="#9E7A43"/>
<path d="M203.164 27.5959H200.305V26.2578H203.164V27.5959Z" fill="#9E7A43"/>
<path d="M205.652 27.5959H202.789V26.2578H205.652V27.5959Z" fill="#9E7A43"/>
<path d="M208.124 27.5959H205.266V26.2578H208.124V27.5959Z" fill="#9E7A43"/>
<path d="M223.333 25.1297C223.349 25.4977 223.288 25.865 223.153 26.208C223.019 26.551 222.815 26.8623 222.554 27.1219C222.292 27.3815 221.98 27.5837 221.636 27.7157C221.292 27.8477 220.925 27.9065 220.557 27.8884C219.977 27.9088 219.401 27.7794 218.885 27.5126C218.38 27.1878 217.981 26.7229 217.736 26.1745C217.36 27.3021 216.485 27.8245 215.129 27.8245C214.562 27.8523 213.997 27.7454 213.48 27.5126C213.107 27.3063 212.797 27.0038 212.582 26.6368V27.5765H207.863V26.2572H211.18V22.9986C211.18 22.3521 211.18 21.5365 211.18 20.5781H212.619V24.2314C212.661 25.7761 213.476 26.5504 215.084 26.5504C215.274 26.5663 215.466 26.5406 215.645 26.4748C215.825 26.4091 215.988 26.3049 216.123 26.1697C216.258 26.0344 216.362 25.8713 216.428 25.6917C216.494 25.5121 216.52 25.3203 216.504 25.1297C216.504 24.6899 216.481 23.1677 216.44 20.5781H217.882C217.882 21.3711 217.882 22.5814 217.901 24.2314C217.889 24.5613 217.95 24.8899 218.08 25.1934C218.21 25.4969 218.405 25.7678 218.653 25.9866C219.164 26.385 219.801 26.5853 220.448 26.5504C220.643 26.5687 220.84 26.5452 221.025 26.4814C221.21 26.4177 221.379 26.3151 221.521 26.1806C221.664 26.0461 221.775 25.8828 221.85 25.7016C221.924 25.5203 221.958 25.3253 221.951 25.1297C221.951 24.7312 221.928 23.0211 221.887 19.9692H223.33C223.311 23.2692 223.333 24.9831 223.333 25.1297ZM216.695 18.2778H215.129V16.6692H216.695V18.2778ZM217.965 16.0453H216.421V14.4141H217.965V16.0453ZM219.239 18.2778H217.695V16.6692H219.239V18.2778Z" fill="#9E7A43"/>
<path d="M229.138 25.6525C229.204 27.2891 228.67 28.8933 227.635 30.1628C227.155 30.749 226.558 31.2283 225.882 31.57C225.206 31.9118 224.466 32.1084 223.709 32.1473C223.563 31.8955 223.356 31.4557 223.082 30.8506C223.702 30.8696 224.319 30.7522 224.889 30.5067C225.459 30.2612 225.968 29.8937 226.38 29.4299C227.248 28.4629 227.712 27.1997 227.676 25.9006L227.658 19.9922H229.1L229.138 25.6525Z" fill="#9E7A43"/>
<path d="M234.312 12.7785H230.953L231.329 12.1283H232.268C232.036 11.847 231.91 11.4933 231.911 11.1285C231.903 10.9416 231.933 10.7551 231.998 10.5799C232.064 10.4047 232.164 10.2445 232.292 10.1088C232.421 9.97308 232.575 9.86464 232.747 9.78994C232.918 9.71524 233.103 9.67579 233.29 9.67395C233.476 9.67129 233.66 9.71282 233.828 9.79514C233.995 9.87745 234.14 9.99821 234.252 10.1475L233.936 10.6098C233.866 10.5068 233.773 10.4211 233.665 10.3592C233.557 10.2973 233.437 10.2609 233.312 10.2528C232.873 10.2528 232.662 10.5685 232.662 11.2149C232.662 11.8614 232.955 12.132 233.541 12.132H234.312V12.7785ZM237.738 23.4941C237.746 24.0755 237.611 24.65 237.345 25.1671C237.079 25.6841 236.69 26.128 236.213 26.4596C235.077 27.2521 233.712 27.6484 232.328 27.5871H231.329V26.2341H232.245C233.128 26.255 234.002 26.0615 234.792 25.6703C235.259 25.4553 235.651 25.1064 235.918 24.6681C236.186 24.2297 236.317 23.7216 236.295 23.2084C236.295 22.9153 236.25 19.8671 236.19 14.079H237.629L237.738 23.4941ZM233.831 24.8697C233.455 25.1629 232.978 25.1629 232.369 25.1629C232.369 23.325 232.328 19.6078 232.268 14.0301H233.707L233.831 24.8697Z" fill="#9E7A43"/>
<path d="M242.001 27.5952H240.558L240.453 14.0645H241.896L242.001 27.5952Z" fill="#9E7A43"/>
<path d="M112.138 51.3234V52.6614H110.447C109.843 52.6467 109.268 52.4005 108.839 51.9736C108.347 51.5077 108.049 50.8725 108.005 50.1958C107.97 49.2875 107.786 48.3912 107.461 47.5423C107.29 47.1339 106.999 46.7873 106.627 46.5488C106.254 46.3104 105.818 46.1915 105.376 46.208C105.048 46.1945 104.721 46.2527 104.418 46.3786C104.115 46.5046 103.843 46.6952 103.621 46.9372C103.164 47.4308 102.916 48.0831 102.93 48.7563H106.668L106.732 51.3234C106.747 52.0896 106.611 52.8513 106.332 53.5647C106.052 54.2781 105.634 54.9291 105.102 55.4803C104.608 56.0266 104.006 56.4633 103.334 56.7622C102.662 57.061 101.934 57.2155 101.198 57.2155C100.463 57.2155 99.7351 57.061 99.0627 56.7622C98.3904 56.4633 97.7882 56.0266 97.2951 55.4803C96.7613 54.9264 96.3425 54.2722 96.0626 53.5555C95.7828 52.8388 95.6476 52.0738 95.6647 51.3046C95.6459 50.7821 95.6234 49.9477 95.582 48.7563H97.0246C97.0246 49.196 97.0434 50.0492 97.0659 51.3234C97.0507 51.8999 97.1498 52.4737 97.3574 53.0117C97.565 53.5497 97.8771 54.0413 98.2756 54.458C98.6445 54.867 99.0955 55.1936 99.5991 55.4164C100.103 55.6392 100.648 55.7532 101.198 55.7509C101.752 55.7565 102.3 55.6417 102.804 55.4146C103.309 55.1875 103.758 54.8534 104.121 54.4354C104.924 53.5846 105.358 52.4515 105.331 51.282L105.289 50.0906H101.409C101.409 46.5826 102.737 44.8286 105.395 44.8286C106.093 44.793 106.785 44.9748 107.376 45.3491C107.966 45.7233 108.427 46.2716 108.693 46.9184C109.085 47.9049 109.317 48.948 109.38 50.0079C109.41 50.3474 109.559 50.6655 109.8 50.9062C110.041 51.1468 110.36 51.2946 110.699 51.3234H112.138ZM100.823 60.389H99.2786V58.7615H100.823V60.389ZM103.392 60.389H101.844V58.7615H103.392V60.389Z" fill="#9E7A43"/>
<path d="M116.857 49.9477C116.857 51.6165 115.858 52.6614 114.021 52.6614H111.703V51.3233H113.998C114.189 51.3393 114.381 51.3135 114.56 51.2478C114.74 51.182 114.903 51.0779 115.038 50.9426C115.173 50.8074 115.277 50.6443 115.343 50.4646C115.409 50.285 115.434 50.0932 115.419 49.9026C115.419 50.0905 115.396 48.4856 115.355 45.0391H116.797C116.835 48.3391 116.857 49.9665 116.857 49.9477ZM115.629 55.7321H114.081V54.1234H115.629V55.7321Z" fill="#9E7A43"/>
<path d="M126.358 51.3221C126.335 51.5514 126.335 52.0137 126.335 52.6602H124.479C123.664 52.6602 123.018 52.2204 122.537 51.3635C122.483 52.8665 121.899 54.3019 120.888 55.4152C119.915 56.4752 118.567 57.1131 117.131 57.193C116.985 56.9411 116.756 56.5051 116.504 55.8963C117.132 55.9136 117.756 55.7938 118.333 55.5452C118.909 55.2966 119.425 54.9251 119.844 54.4567C120.69 53.4873 121.139 52.233 121.098 50.9463L121.076 45.0566H122.518L122.537 49.2136C122.541 49.8002 122.772 50.3624 123.183 50.7809C123.481 51.1043 123.894 51.2985 124.333 51.3221H126.358Z" fill="#9E7A43"/>
<path d="M128.718 52.6603H125.852V51.3223H128.71L128.718 52.6603Z" fill="#9E7A43"/>
<path d="M131.199 52.6603H128.34V51.3223H131.199V52.6603Z" fill="#9E7A43"/>
<path d="M144.018 52.6604H139.886C139.478 52.6627 139.076 52.5737 138.707 52.4001C138.338 52.2265 138.013 51.9725 137.756 51.6569C136.662 52.2861 135.429 52.6311 134.168 52.6604H130.734V51.3224H134.157C135.129 51.3052 136.086 51.0701 136.955 50.6346C136.322 49.8201 135.608 49.071 134.825 48.3982C134.017 47.7364 133.026 47.3366 131.985 47.2519V45.538C133.218 44.3691 134.972 43.7828 137.267 43.8053C138.718 43.7991 140.147 44.1585 141.422 44.8502C142.069 45.1618 142.651 45.5943 143.135 46.1243C142.108 48.0892 140.617 49.774 138.793 51.033C139.042 51.2121 139.339 51.3128 139.645 51.3224H144.029L144.018 52.6604ZM141.43 46.4137C141.054 46.1845 140.701 45.9552 140.344 45.7259C139.401 45.2982 138.374 45.0838 137.339 45.0982C136.508 45.0865 135.679 45.1851 134.874 45.3914C134.281 45.5854 133.709 45.8372 133.165 46.1431C134.792 46.5829 136.399 47.8758 137.966 50.0295C139.368 49.0883 140.549 47.8548 141.43 46.4137Z" fill="#9E7A43"/>
<path d="M146.382 52.6603H143.508V51.3223H146.37L146.382 52.6603Z" fill="#9E7A43"/>
<path d="M148.863 52.6603H146.004V51.3223H148.863V52.6603Z" fill="#9E7A43"/>
<path d="M152.747 49.9466C152.747 51.6154 151.744 52.6602 149.907 52.6602H148.551V51.3222H149.892C150.082 51.3382 150.274 51.3124 150.454 51.2466C150.633 51.1809 150.796 51.0767 150.931 50.9415C151.067 50.8062 151.171 50.6431 151.236 50.4635C151.302 50.2839 151.328 50.0921 151.312 49.9015C151.312 48.586 151.293 46.7894 151.271 44.5343C151.271 41.9258 151.229 40.1293 151.229 39.1445H152.668C152.668 40.1067 152.691 41.9033 152.713 44.5568C152.724 46.8119 152.747 48.6085 152.747 49.9466Z" fill="#9E7A43"/>
<path d="M157.005 52.6616H155.566L155.461 39.1309H156.904L157.005 52.6616Z" fill="#9E7A43"/>
<path d="M175.546 52.66H174.648C173.861 52.6644 173.101 52.3734 172.518 51.8444C171.987 51.3623 171.652 50.7012 171.578 49.9877H170.016C169.366 49.9651 168.468 49.9651 167.341 49.9651C166.573 49.972 165.839 50.2805 165.296 50.8239C164.754 51.3674 164.447 52.1024 164.441 52.8705C164.435 53.2519 164.509 53.6302 164.656 53.982C164.804 54.3338 165.022 54.6514 165.297 54.9151C165.562 55.1893 165.88 55.4066 166.231 55.554C166.582 55.7013 166.96 55.7755 167.341 55.7721H170.098V57.1928H167.176C166.052 57.1908 164.976 56.7435 164.181 55.9489C163.387 55.1542 162.94 54.077 162.938 52.9532C162.921 51.831 163.323 50.7428 164.065 49.9013C164.394 49.4801 164.816 49.1406 165.297 48.9092C165.779 48.6778 166.307 48.5606 166.841 48.567C167.469 48.5444 169.035 48.5444 171.541 48.5444C171.31 47.2515 170.914 46.3118 170.35 45.7255C169.782 45.205 169.053 44.8957 168.284 44.8498C167.422 44.8314 166.57 45.025 165.801 45.4136L165.297 44.286C166.21 43.699 167.282 43.4076 168.366 43.4516C171.353 43.7636 172.897 45.9172 172.961 49.9276C173.002 50.1517 173.09 50.3645 173.219 50.5518C173.349 50.7391 173.517 50.8966 173.712 51.0138C174.013 51.2011 174.361 51.3013 174.715 51.3032H175.527V52.6412L175.546 52.66ZM169.219 53.7462H167.675V52.115H169.219V53.7462Z" fill="#9E7A43"/>
<path d="M183.982 52.6614H182.122C181.815 52.6601 181.512 52.5878 181.237 52.4503C180.962 52.3127 180.722 52.1136 180.537 51.8683C180.305 51.6061 180.128 51.3008 180.015 50.97C179.786 51.472 179.419 51.8981 178.956 52.1979C178.494 52.4976 177.955 52.6584 177.404 52.6614H174.688V51.3233H177.005C177.39 51.3273 177.767 51.2188 178.091 51.0114C178.291 50.8942 178.456 50.7259 178.57 50.5238C178.683 50.3217 178.741 50.0931 178.737 49.8613C178.779 50.1958 178.779 48.5871 178.718 45.0391H180.157C180.157 46.3733 180.18 47.67 180.199 49.0081C180.184 49.6535 180.416 50.2801 180.849 50.7596C180.988 50.9254 181.16 51.061 181.354 51.158C181.548 51.2549 181.759 51.3112 181.976 51.3233H183.982V52.6614ZM179.098 55.7509H177.531V54.146H179.098V55.7509ZM181.645 55.7509H180.097V54.146H181.641L181.645 55.7509Z" fill="#9E7A43"/>
<path d="M191.371 52.6606H189.515C189.207 52.659 188.904 52.5867 188.628 52.4491C188.353 52.3116 188.112 52.1126 187.926 51.8675C187.695 51.6053 187.517 51.3 187.404 50.9692C187.009 51.9915 185.942 52.5967 184.797 52.6606H183.418V51.3225H184.398C184.782 51.3209 185.158 51.2129 185.484 51.0106C185.679 50.8888 185.838 50.719 185.948 50.5176C186.058 50.3162 186.114 50.0899 186.112 49.8604C186.112 46.9589 186.07 43.3657 186.006 39.1035H187.46C187.483 41.9262 187.502 45.3089 187.565 49.2516C187.591 49.8191 187.83 50.356 188.234 50.755C188.378 50.9219 188.553 51.0579 188.751 51.1548C188.949 51.2517 189.164 51.3075 189.384 51.3188H191.386L191.371 52.6606Z" fill="#9E7A43"/>
<path d="M193.73 52.6603H190.871V51.3223H193.73V52.6603Z" fill="#9E7A43"/>
<path d="M196.214 52.6603H193.352V51.3223H196.214V52.6603Z" fill="#9E7A43"/>
<path d="M198.703 52.6603H195.844V51.3223H198.703V52.6603Z" fill="#9E7A43"/>
<path d="M201.183 52.6603H198.324V51.3223H201.183V52.6603Z" fill="#9E7A43"/>
<path d="M203.667 52.6603H200.809V51.3223H203.667V52.6603Z" fill="#9E7A43"/>
<path d="M215.943 52.6613H202.645V51.3233H212.187C212.218 49.9399 211.768 48.5886 210.913 47.5009C210.599 47.0751 210.19 46.7288 209.719 46.4899C209.247 46.251 208.726 46.1261 208.197 46.1252C207.183 46.1461 206.191 46.4255 205.316 46.9371L204.711 45.7043C205.77 45.1733 206.93 44.8747 208.114 44.8285C209.933 44.8285 211.308 45.4976 212.269 46.8544C213.062 47.982 213.543 49.444 213.689 51.3233H215.943V52.6613ZM209.388 43.3665H207.844V41.7578H209.388V43.3665Z" fill="#9E7A43"/>
<path d="M218.324 52.6603H215.461V51.3223H218.324V52.6603Z" fill="#9E7A43"/>
<path d="M220.808 52.6603H217.949V51.3223H220.808V52.6603Z" fill="#9E7A43"/>
<path d="M223.292 52.6603H220.434V51.3223H223.292V52.6603Z" fill="#9E7A43"/>
<path d="M225.777 52.6603H222.914V51.3223H225.777V52.6603Z" fill="#9E7A43"/>
<path d="M228.261 52.6603H225.402V51.3223H228.261V52.6603Z" fill="#9E7A43"/>
<path d="M235.758 52.6606H233.898C233.591 52.6587 233.288 52.5862 233.013 52.4487C232.738 52.3112 232.499 52.1124 232.313 51.8675C232.081 51.6053 231.904 51.3 231.791 50.9692C231.415 51.9915 230.329 52.5967 229.183 52.6606H227.805V51.3225H228.785C229.169 51.3209 229.545 51.2129 229.871 51.0106C230.065 50.8888 230.225 50.719 230.335 50.5176C230.445 50.3162 230.501 50.0899 230.498 49.8604C230.498 46.9589 230.457 43.3657 230.393 39.1035H231.832C231.854 41.9262 231.873 45.3089 231.937 49.2516C231.963 49.8191 232.202 50.356 232.606 50.755C232.749 50.9219 232.925 51.0579 233.123 51.1548C233.32 51.2517 233.536 51.3075 233.755 51.3188H235.758V52.6606Z" fill="#9E7A43"/>
<path d="M238.117 52.6603H235.258V51.3223H238.117V52.6603Z" fill="#9E7A43"/>
<path d="M242.001 49.9466C242.001 51.6154 240.998 52.6602 239.161 52.6602H237.801V51.3222H239.138C239.328 51.3376 239.52 51.3114 239.699 51.2454C239.878 51.1793 240.04 51.0751 240.175 50.9399C240.31 50.8048 240.414 50.6418 240.479 50.4625C240.545 50.2832 240.57 50.0917 240.554 49.9015C240.554 48.586 240.536 46.7894 240.513 44.5343C240.494 41.9258 240.472 40.1293 240.472 39.1445H241.933C241.933 40.1067 241.933 41.9033 241.974 44.5568C241.978 46.8119 242.001 48.6085 242.001 49.9466Z" fill="#9E7A43"/>
<path d="M98.0708 66.6133H98.6606L101.204 72.2511H100.524L99.8703 70.7777H96.8348L96.1699 72.2323H95.5312L98.0708 66.6133ZM99.6261 70.1914L98.36 67.3462L97.0828 70.1914H99.6261Z" fill="#9E7A43"/>
<path d="M102.308 66.6537H104.705C105.286 66.6218 105.857 66.8218 106.291 67.21C106.431 67.3561 106.542 67.5286 106.616 67.7176C106.69 67.9065 106.726 68.1083 106.723 68.3112C106.723 69.2358 106.084 69.7771 105.22 69.9387L106.933 72.2163H106.159L104.544 70.0477H102.936V72.2163H102.305L102.308 66.6537ZM104.653 69.4989C105.487 69.4989 106.084 69.0667 106.084 68.3488C106.084 67.6648 105.558 67.2476 104.66 67.2476H102.936V69.5027L104.653 69.4989Z" fill="#9E7A43"/>
<path d="M110.133 66.6133H110.723L113.266 72.2511H112.586L111.952 70.7589H108.916L108.255 72.2323H107.594L110.133 66.6133ZM111.689 70.1914L110.423 67.3462L109.145 70.1914H111.689Z" fill="#9E7A43"/>
<path d="M114.367 66.6543H116.741C117.273 66.6214 117.796 66.7981 118.199 67.1466C118.319 67.2627 118.414 67.4018 118.478 67.5555C118.543 67.7092 118.576 67.8744 118.575 68.0412C118.58 68.3217 118.497 68.5968 118.338 68.828C118.179 69.0591 117.952 69.2348 117.688 69.3304C118.349 69.5296 118.887 69.9129 118.887 70.6797C118.887 71.6343 118.079 72.2019 116.862 72.2019H114.382L114.367 66.6543ZM116.64 69.1387C117.391 69.1387 117.921 68.7967 117.921 68.1427C117.921 67.5939 117.485 67.2331 116.685 67.2331H114.991V69.1575L116.64 69.1387ZM116.862 71.6644C117.707 71.6644 118.233 71.2886 118.233 70.6684C118.233 70.0633 117.722 69.7137 116.73 69.7137H114.972V71.6794L116.862 71.6644Z" fill="#9E7A43"/>
<path d="M120.18 66.6543H120.811V72.232H120.18V66.6543Z" fill="#9E7A43"/>
<path d="M124.505 66.6133H125.099L127.638 72.2511H126.977L126.323 70.7777H123.288L122.627 72.2511H121.98L124.505 66.6133ZM126.056 70.1914L124.79 67.3462L123.517 70.1914H126.056Z" fill="#9E7A43"/>
<path d="M128.738 66.6543H129.328L132.841 71.1232V66.6543H133.453V72.232H132.953L129.351 67.6541V72.2282H128.738V66.6543Z" fill="#9E7A43"/>
<path d="M138.207 69.4571C138.196 69.0825 138.259 68.7094 138.395 68.3599C138.53 68.0104 138.734 67.6916 138.994 67.4224C139.255 67.1532 139.567 66.9391 139.912 66.7928C140.257 66.6465 140.628 66.5709 141.002 66.5706C141.766 66.5408 142.511 66.8105 143.08 67.3223L142.674 67.8034C142.447 67.5907 142.181 67.4248 141.89 67.3151C141.6 67.2055 141.29 67.1543 140.98 67.1644C140.689 67.1721 140.403 67.2378 140.138 67.3576C139.873 67.4774 139.635 67.649 139.437 67.8622C139.239 68.0754 139.086 68.326 138.987 68.5992C138.887 68.8725 138.843 69.1629 138.857 69.4534C138.857 70.7839 139.71 71.7724 141.066 71.7724C141.649 71.7693 142.215 71.5723 142.674 71.2124V69.8255H140.98V69.2617H143.279V71.483C142.664 72.0332 141.868 72.337 141.043 72.3362C140.663 72.3514 140.284 72.287 139.931 72.1472C139.577 72.0073 139.256 71.7951 138.989 71.524C138.722 71.253 138.515 70.9291 138.38 70.5732C138.245 70.2173 138.186 69.8372 138.207 69.4571Z" fill="#9E7A43"/>
<path d="M144.633 69.9095V66.6659H145.26V69.8681C145.26 71.0709 145.899 71.7474 146.966 71.7474C148.033 71.7474 148.645 71.1235 148.645 69.9057V66.6621H149.276V69.8569C149.276 71.4806 148.344 72.3262 146.951 72.3262C145.557 72.3262 144.633 71.473 144.633 69.9095Z" fill="#9E7A43"/>
<path d="M150.75 66.6543H151.396V71.6494H154.533V72.232H150.776L150.75 66.6543Z" fill="#9E7A43"/>
<path d="M155.683 66.6543H159.688V67.2331H156.307V69.2289H159.312V69.8002H156.307V72.232H155.68L155.683 66.6543Z" fill="#9E7A43"/>
<path d="M164.328 66.6543H166.263C168.017 66.6543 169.227 67.857 169.227 69.4281C169.227 70.9992 168.017 72.2169 166.263 72.2169H164.328V66.6543ZM166.263 71.6494C167.672 71.6494 168.573 70.6947 168.573 69.4582C168.579 69.1576 168.522 68.8592 168.407 68.5817C168.292 68.3041 168.12 68.0536 167.903 67.8459C167.686 67.6382 167.428 67.4778 167.145 67.3749C166.863 67.272 166.563 67.2288 166.263 67.2481H164.956V71.6644L166.263 71.6494Z" fill="#9E7A43"/>
<path d="M170.617 66.6543H171.245V72.232H170.617V66.6543Z" fill="#9E7A43"/>
<path d="M172.637 69.4571C172.625 69.0825 172.689 68.7094 172.824 68.3599C172.959 68.0104 173.163 67.6916 173.424 67.4224C173.685 67.1532 173.997 66.9391 174.342 66.7928C174.686 66.6465 175.057 66.5709 175.432 66.5706C176.196 66.5408 176.941 66.8105 177.509 67.3223L177.104 67.8034C176.877 67.5903 176.611 67.4242 176.32 67.3145C176.029 67.2049 175.72 67.1539 175.409 67.1644C175.119 67.1721 174.833 67.2378 174.568 67.3576C174.303 67.4775 174.065 67.6491 173.868 67.8624C173.671 68.0757 173.518 68.3263 173.419 68.5995C173.319 68.8728 173.276 69.1631 173.29 69.4534C173.29 70.7839 174.139 71.7724 175.496 71.7724C176.079 71.771 176.645 71.5738 177.104 71.2124V69.8255H175.409V69.2617H177.693V71.483C177.074 72.0375 176.27 72.3417 175.439 72.3362C175.062 72.3466 174.687 72.2787 174.337 72.1367C173.987 71.9947 173.671 71.7817 173.407 71.5112C173.144 71.2407 172.94 70.9185 172.807 70.5649C172.674 70.2114 172.616 69.8342 172.637 69.4571Z" fill="#9E7A43"/>
<path d="M179.195 66.6543H179.823V72.232H179.195V66.6543Z" fill="#9E7A43"/>
<path d="M182.925 67.2331H181.047V66.6543H185.431V67.2331H183.553V72.232H182.918L182.925 67.2331Z" fill="#9E7A43"/>
<path d="M187.961 66.6133H188.551L191.095 72.2511H190.418L189.765 70.7777H186.729L186.068 72.2511H185.422L187.961 66.6133ZM189.517 70.1914L188.251 67.3462L186.977 70.1914H189.517Z" fill="#9E7A43"/>
<path d="M192.195 66.6543H192.826V71.6494H195.963V72.232H192.207L192.195 66.6543Z" fill="#9E7A43"/>
<path d="M202.609 66.6133H203.199L205.742 72.2511H205.062L204.412 70.7777H201.362L200.701 72.2511H200.055L202.609 66.6133ZM204.165 70.1914L202.899 67.3462L201.621 70.1914H204.165Z" fill="#9E7A43"/>
<path d="M206.844 66.6535H209.252C209.833 66.6228 210.403 66.8227 210.837 67.2097C210.977 67.3561 211.087 67.5287 211.161 67.7177C211.234 67.9066 211.27 68.1083 211.265 68.311C211.265 69.2356 210.627 69.7768 209.763 69.9384L211.476 72.2161H210.702L209.086 70.0474H207.494V72.2161H206.863L206.844 66.6535ZM209.188 69.4987C210.022 69.4987 210.619 69.0665 210.619 68.3486C210.619 67.6645 210.093 67.2473 209.195 67.2473H207.475V69.5024L209.188 69.4987Z" fill="#9E7A43"/>
<path d="M212.361 69.4582C212.351 69.082 212.416 68.7074 212.553 68.3569C212.69 68.0063 212.896 67.6869 213.159 67.4176C213.422 67.1484 213.736 66.9347 214.083 66.7894C214.43 66.644 214.803 66.57 215.179 66.5717C215.583 66.5593 215.986 66.6319 216.36 66.7847C216.735 66.9374 217.073 67.167 217.354 67.4587L216.926 67.921C216.699 67.6836 216.427 67.4945 216.125 67.3653C215.824 67.2361 215.499 67.1694 215.171 67.1693C214.878 67.1725 214.588 67.2348 214.319 67.3526C214.05 67.4704 213.807 67.6412 213.605 67.8549C213.404 68.0685 213.247 68.3206 213.145 68.596C213.043 68.8715 212.997 69.1647 213.011 69.4582C212.998 69.7523 213.044 70.046 213.146 70.3221C213.248 70.5982 213.404 70.851 213.606 71.0657C213.807 71.2805 214.049 71.4527 214.318 71.5723C214.587 71.6919 214.877 71.7565 215.171 71.7622C215.511 71.7617 215.847 71.6895 216.157 71.5503C216.467 71.411 216.744 71.2079 216.971 70.9541L217.388 71.3638C217.109 71.6786 216.765 71.9291 216.379 72.0978C215.994 72.2665 215.577 72.3495 215.156 72.341C214.781 72.3433 214.41 72.2696 214.064 72.1245C213.718 71.9793 213.405 71.7656 213.144 71.4963C212.883 71.2269 212.679 70.9075 212.544 70.5573C212.41 70.207 212.348 69.8332 212.361 69.4582Z" fill="#9E7A43"/>
<path d="M218.484 66.6543H219.116V69.1312H222.331V66.6543H222.962V72.232H222.331V69.7213H219.116V72.232H218.484V66.6543Z" fill="#9E7A43"/>
<path d="M224.602 66.6543H225.229V72.232H224.602V66.6543Z" fill="#9E7A43"/>
<path d="M226.387 66.6543H227.089L229.073 71.4577L231.064 66.6543H231.74L229.343 72.2733H228.784L226.387 66.6543Z" fill="#9E7A43"/>
<path d="M232.844 66.6543H236.871V67.2256H233.49V69.1312H236.533V69.7062H233.49V71.6569H236.931V72.232H232.844V66.6543Z" fill="#9E7A43"/>
<path d="M237.82 71.4115L238.196 70.9492C238.446 71.2019 238.744 71.4019 239.072 71.5375C239.401 71.673 239.753 71.7414 240.108 71.7385C240.86 71.7385 241.352 71.3401 241.352 70.7876C241.352 70.2689 241.074 69.9758 239.902 69.7277C238.621 69.4496 238.023 69.0361 238.023 68.119V68.1003C238.023 67.2245 238.797 66.5968 239.856 66.5968C240.571 66.5768 241.268 66.8218 241.814 67.2847L241.438 67.7695C240.991 67.3802 240.419 67.1654 239.826 67.1644C239.101 67.1644 238.639 67.5628 238.639 68.0664C238.639 68.5926 238.929 68.8858 240.142 69.1489C241.355 69.412 241.96 69.8743 241.96 70.7275C241.96 71.6859 241.164 72.3061 240.056 72.3061C239.224 72.304 238.424 71.984 237.82 71.4115Z" fill="#9E7A43"/>
</g>
<defs>
<clipPath id="clip0_818_4121">
<rect width="242" height="82" fill="white"/>
</clipPath>
</defs>
</svg>
