<svg width="161" height="58" viewBox="0 0 161 58" fill="none" xmlns="http://www.w3.org/2000/svg">
<mask id="path-1-inside-1_971_1115" fill="white">
<path fill-rule="evenodd" clip-rule="evenodd" d="M142.015 0H68.47H58.9984V0.00081273L18.315 0.000809264C18.3079 0.105309 18.3005 0.2039 18.2933 0.298551C18.2788 0.490768 18.2655 0.666738 18.2593 0.842949C18.1353 4.41402 16.6468 7.27726 13.5813 9.28846C12.1852 10.2044 10.7687 11.0991 9.30686 11.9099C5.57331 13.9804 2.43703 16.6114 1.19165 20.7647C0.566943 22.848 0.195842 25.0495 0.0609463 27.2183C-0.449293 35.4223 2.18296 42.041 10.2786 45.8166C11.4308 46.3539 12.4843 47.1091 13.5269 47.8566C13.6947 47.9768 13.8622 48.0969 14.0297 48.2158C16.2038 49.7587 17.5885 51.8176 18.0212 54.4329C18.1262 55.0671 18.2064 55.7052 18.2878 56.3534C18.3254 56.6525 18.3632 56.9538 18.4039 57.2578L91.9487 57.2578H101.42V57.257H142.104C142.111 57.1525 142.118 57.0538 142.125 56.9592C142.14 56.767 142.153 56.591 142.159 56.4149C142.283 52.8438 143.772 49.9805 146.837 47.9693C148.233 47.0534 149.65 46.1587 151.112 45.3479C154.845 43.2774 157.982 40.6464 159.227 36.4931C159.852 34.4098 160.223 32.2083 160.358 30.0395C160.868 21.8355 158.236 15.2168 150.14 11.4412C148.988 10.9039 147.934 10.1487 146.892 9.40125C146.724 9.28098 146.557 9.16092 146.389 9.04199C144.215 7.49908 142.83 5.44024 142.397 2.82491C142.293 2.19068 142.212 1.55254 142.131 0.904274C142.093 0.605211 142.055 0.303991 142.015 0Z"/>
</mask>
<path d="M142.015 0L143.997 -0.265275L143.765 -2H142.015V0ZM58.9984 0V-2H56.9984V0H58.9984ZM58.9984 0.00081273V2.00081L60.9984 2.00081V0.00081273H58.9984ZM18.315 0.000809264V-1.99919L16.4453 -1.99919L16.3195 -0.133733L18.315 0.000809264ZM18.2933 0.298551L20.2876 0.449444L20.2876 0.449416L18.2933 0.298551ZM18.2593 0.842949L16.2605 0.773478L16.2605 0.773552L18.2593 0.842949ZM13.5813 9.28846L12.4842 7.61624L12.4842 7.61624L13.5813 9.28846ZM9.30686 11.9099L10.2768 13.6589L10.2768 13.6589L9.30686 11.9099ZM1.19165 20.7647L3.10738 21.3391L3.10738 21.3391L1.19165 20.7647ZM0.0609463 27.2183L-1.9352 27.0941L-1.9352 27.0942L0.0609463 27.2183ZM10.2786 45.8166L11.1239 44.004H11.1239L10.2786 45.8166ZM13.5269 47.8566L12.3617 49.4821L12.3617 49.4821L13.5269 47.8566ZM14.0297 48.2158L15.1872 46.5848H15.1872L14.0297 48.2158ZM18.0212 54.4329L19.9944 54.1064L19.9944 54.1064L18.0212 54.4329ZM18.2878 56.3534L20.2722 56.1041V56.1041L18.2878 56.3534ZM18.4039 57.2578L16.4216 57.5231L16.6537 59.2578H18.4039V57.2578ZM91.9487 57.2578V59.2578V57.2578ZM101.42 57.2578V59.2578H103.42V57.2578H101.42ZM101.42 57.257V55.257H99.4203V57.257H101.42ZM142.104 57.257V59.257H143.973L144.099 57.3916L142.104 57.257ZM142.125 56.9592L140.131 56.8083L140.131 56.8084L142.125 56.9592ZM142.159 56.4149L144.158 56.4843V56.4843L142.159 56.4149ZM146.837 47.9693L147.934 49.6416V49.6416L146.837 47.9693ZM151.112 45.3479L150.142 43.5989L150.142 43.5989L151.112 45.3479ZM159.227 36.4931L157.311 35.9187V35.9187L159.227 36.4931ZM160.358 30.0395L158.362 29.9153V29.9153L160.358 30.0395ZM150.14 11.4412L149.295 13.2538L149.295 13.2538L150.14 11.4412ZM146.892 9.40125L145.727 11.0267L145.727 11.0267L146.892 9.40125ZM146.389 9.04199L145.231 10.673L145.232 10.673L146.389 9.04199ZM142.397 2.82491L140.424 3.15137V3.1514L142.397 2.82491ZM142.131 0.904274L144.115 0.654946L144.115 0.654901L142.131 0.904274ZM68.47 2H142.015V-2H68.47V2ZM58.9984 2H68.47V-2H58.9984V2ZM60.9984 0.00081273V0H56.9984V0.00081273H60.9984ZM18.315 2.00081L58.9984 2.00081V-1.99919L18.315 -1.99919V2.00081ZM20.2876 0.449416C20.2947 0.355714 20.3028 0.249234 20.3105 0.135351L16.3195 -0.133733C16.3131 -0.0386162 16.3062 0.0520855 16.299 0.147687L20.2876 0.449416ZM20.2581 0.912421C20.2626 0.784074 20.2725 0.649405 20.2876 0.449444L16.299 0.147659C16.2851 0.332132 16.2683 0.549402 16.2605 0.773478L20.2581 0.912421ZM14.6784 10.9607C18.3196 8.57179 20.113 5.09225 20.2581 0.912347L16.2605 0.773552C16.1577 3.7358 14.974 5.98274 12.4842 7.61624L14.6784 10.9607ZM10.2768 13.6589C11.8021 12.813 13.2661 11.8873 14.6784 10.9607L12.4842 7.61624C11.1044 8.52152 9.73535 9.38525 8.33687 10.1608L10.2768 13.6589ZM3.10738 21.3391C4.13218 17.9215 6.72617 15.628 10.2768 13.6589L8.33688 10.1608C4.42046 12.3328 0.741878 15.3014 -0.724074 20.1902L3.10738 21.3391ZM2.05709 27.3425C2.18332 25.3129 2.53032 23.2636 3.10738 21.3391L-0.724073 20.1902C-1.39643 22.4325 -1.79164 24.7861 -1.9352 27.0941L2.05709 27.3425ZM11.1239 44.004C7.42982 42.2812 5.10421 39.9776 3.72455 37.2701C2.32891 34.5312 1.8165 31.2108 2.05709 27.3425L-1.9352 27.0942C-2.20485 31.4298 -1.65625 35.5208 0.160588 39.0862C1.9934 42.6829 5.03173 45.5764 9.43326 47.6292L11.1239 44.004ZM14.6922 46.2311C13.6771 45.5034 12.4736 44.6335 11.1239 44.004L9.43326 47.6292C10.388 48.0744 11.2914 48.7148 12.3617 49.4821L14.6922 46.2311ZM15.1872 46.5848C15.0242 46.4691 14.8606 46.3518 14.6921 46.2311L12.3617 49.4821C12.5288 49.6018 12.7001 49.7247 12.8722 49.8468L15.1872 46.5848ZM19.9944 54.1064C19.4666 50.9165 17.7546 48.4068 15.1872 46.5848L12.8722 49.8468C14.653 51.1106 15.7104 52.7186 16.0481 54.7594L19.9944 54.1064ZM20.2722 56.1041C20.1916 55.4625 20.1068 54.7856 19.9944 54.1064L16.0481 54.7594C16.1456 55.3486 16.2211 55.9479 16.3034 56.6028L20.2722 56.1041ZM20.3862 56.9926C20.3468 56.6978 20.3099 56.4044 20.2722 56.1041L16.3034 56.6028C16.3408 56.9006 16.3797 57.2098 16.4216 57.5231L20.3862 56.9926ZM91.9487 55.2578L18.4039 55.2578V59.2578L91.9487 59.2578V55.2578ZM101.42 55.2578H91.9487V59.2578H101.42V55.2578ZM99.4203 57.257V57.2578H103.42V57.257H99.4203ZM142.104 55.257H101.42V59.257H142.104V55.257ZM140.131 56.8084C140.124 56.9021 140.116 57.0086 140.108 57.1224L144.099 57.3916C144.106 57.2964 144.112 57.2056 144.12 57.1099L140.131 56.8084ZM140.161 56.3454C140.156 56.4738 140.146 56.6084 140.131 56.8083L144.12 57.1101C144.134 56.9255 144.15 56.7083 144.158 56.4843L140.161 56.3454ZM145.74 46.2971C142.099 48.686 140.306 52.1656 140.161 56.3455L144.158 56.4843C144.261 53.522 145.445 51.2751 147.934 49.6416L145.74 46.2971ZM150.142 43.5989C148.617 44.4448 147.153 45.3705 145.74 46.2971L147.934 49.6416C149.314 48.7363 150.683 47.8726 152.082 47.097L150.142 43.5989ZM157.311 35.9187C156.287 39.3363 153.693 41.6298 150.142 43.5989L152.082 47.097C155.998 44.925 159.677 41.9564 161.143 37.0676L157.311 35.9187ZM158.362 29.9153C158.235 31.9449 157.888 33.9942 157.311 35.9187L161.143 37.0676C161.815 34.8253 162.21 32.4717 162.354 30.1636L158.362 29.9153ZM149.295 13.2538C152.989 14.9766 155.314 17.2802 156.694 19.9877C158.09 22.7266 158.602 26.047 158.362 29.9153L162.354 30.1636C162.624 25.828 162.075 21.737 160.258 18.1716C158.425 14.5749 155.387 11.6814 150.985 9.62864L149.295 13.2538ZM145.727 11.0267C146.742 11.7544 147.945 12.6243 149.295 13.2538L150.985 9.62864C150.031 9.1834 149.127 8.54299 148.057 7.77577L145.727 11.0267ZM145.232 10.673C145.395 10.7887 145.558 10.906 145.727 11.0267L148.057 7.77577C147.89 7.65596 147.719 7.5331 147.546 7.41095L145.232 10.673ZM140.424 3.1514C140.952 6.34127 142.664 8.85096 145.231 10.673L147.546 7.41098C145.766 6.1472 144.708 4.53922 144.371 2.49843L140.424 3.1514ZM140.146 1.1536C140.227 1.79528 140.312 2.47222 140.424 3.15137L144.371 2.49845C144.273 1.90913 144.198 1.30981 144.115 0.654946L140.146 1.1536ZM140.032 0.265275C140.072 0.559994 140.109 0.853258 140.146 1.15365L144.115 0.654901C144.078 0.357165 144.039 0.0479874 143.997 -0.265275L140.032 0.265275Z" fill="#9E7A43" mask="url(#path-1-inside-1_971_1115)"/>
</svg>
